<svg width="194" height="33" fill="none" xmlns="http://www.w3.org/2000/svg"><path d="M1.68 26V8.72h7.14c.168 0 .384.008.648.024.264.008.508.032.732.072 1 .152 1.824.484 2.472.996a4.559 4.559 0 011.452 1.944c.32.776.48 1.64.48 2.592 0 .944-.16 1.808-.48 2.592a4.664 4.664 0 01-1.464 1.932c-.648.512-1.468.844-2.46.996a9.048 9.048 0 01-.744.072c-.264.016-.476.024-.636.024H4.572V26H1.68zm2.892-8.736H8.7c.16 0 .34-.008.54-.024s.384-.048.552-.096c.48-.12.856-.332 1.128-.636.28-.304.476-.648.588-1.032.12-.384.18-.76.18-1.128 0-.368-.06-.744-.18-1.128a2.56 2.56 0 00-.588-1.044c-.272-.304-.648-.516-1.128-.636a2.348 2.348 0 00-.552-.084c-.2-.016-.38-.024-.54-.024H4.572v5.832zm11.956 8.712v-2.52l7.392-6.588c.576-.512.976-.996 1.2-1.452.224-.456.336-.896.336-1.32 0-.576-.124-1.088-.372-1.536a2.79 2.79 0 00-1.032-1.08c-.432-.264-.932-.396-1.5-.396-.6 0-1.132.14-1.596.42a2.914 2.914 0 00-1.068 1.092 2.788 2.788 0 00-.36 1.476h-2.976c0-1.152.256-2.156.768-3.012a5.341 5.341 0 012.136-1.992c.912-.472 1.964-.708 3.156-.708 1.104 0 2.096.248 2.976.744a5.355 5.355 0 012.076 2.04c.504.864.756 1.86.756 2.988 0 .824-.112 1.516-.336 2.076a4.868 4.868 0 01-1.008 1.548c-.44.472-.988.996-1.644 1.572l-5.244 4.644-.264-.72h8.496v2.724H16.528zM31.305 26V8.72h7.14c.168 0 .384.008.648.024.264.008.508.032.732.072 1 .152 1.824.484 2.472.996a4.559 4.559 0 011.452 1.944c.32.776.48 1.64.48 2.592 0 .944-.16 1.808-.48 2.592a4.664 4.664 0 01-1.464 1.932c-.648.512-1.468.844-2.46.996a9.048 9.048 0 01-.744.072c-.264.016-.476.024-.636.024h-4.248V26h-2.892zm2.892-8.736h4.128c.16 0 .34-.008.54-.024s.384-.048.552-.096c.48-.12.856-.332 1.128-.636.28-.304.476-.648.588-1.032.12-.384.18-.76.18-1.128 0-.368-.06-.744-.18-1.128a2.56 2.56 0 00-.588-1.044c-.272-.304-.648-.516-1.128-.636a2.348 2.348 0 00-.552-.084c-.2-.016-.38-.024-.54-.024h-4.128v5.832zm24.02 9.096c-1.287 0-2.44-.2-3.455-.6a6.662 6.662 0 01-2.58-1.824c-.704-.816-1.232-1.828-1.584-3.036l2.832-.708c.32 1.024.884 1.856 1.692 2.496.808.64 1.78.956 2.916.948a6.051 6.051 0 002.244-.468 4.015 4.015 0 001.74-1.368 4.67 4.67 0 00.792-1.464 8.584 8.584 0 00.348-1.632h-6.12v-2.712h6.144c-.128-.976-.408-1.832-.84-2.568a4.568 4.568 0 00-1.74-1.728c-.72-.416-1.576-.616-2.568-.6-1.184.008-2.184.336-3 .984-.816.648-1.372 1.524-1.668 2.628l-2.892-.408c.432-1.888 1.32-3.348 2.664-4.38 1.344-1.04 3.036-1.56 5.076-1.56 1.672 0 3.108.38 4.308 1.14 1.208.752 2.136 1.804 2.784 3.156.656 1.352.988 2.92.996 4.704.008 1.68-.308 3.2-.948 4.56-.64 1.36-1.568 2.44-2.784 3.24-1.208.8-2.66 1.2-4.356 1.2zM68.712 26V8.72h2.892v8.016l6.9-8.016h3.552l-7.428 8.472L82.56 26h-3.672l-7.284-8.064V26h-2.892zm15.54 0V8.72h6.851c1.168 0 2.124.236 2.868.708.752.464 1.308 1.06 1.668 1.788.368.728.552 1.48.552 2.256 0 .952-.228 1.76-.684 2.424a3.284 3.284 0 01-1.836 1.344v-.6c1.088.248 1.912.764 2.472 1.548.568.784.852 1.676.852 2.676 0 1.024-.196 1.92-.588 2.688a4.223 4.223 0 01-1.752 1.8c-.768.432-1.72.648-2.856.648H84.25zm2.927-2.724h4.26c.504 0 .956-.1 1.356-.3.4-.208.712-.496.936-.864.232-.376.348-.82.348-1.332 0-.464-.1-.88-.3-1.248-.2-.368-.492-.66-.876-.876-.384-.224-.844-.336-1.38-.336h-4.344v4.956zm0-7.656h3.888c.416 0 .788-.08 1.116-.24.328-.16.588-.396.78-.708.192-.312.288-.696.288-1.152 0-.6-.192-1.1-.576-1.5-.384-.4-.92-.6-1.608-.6h-3.888v4.2zM98.191 26l5.448-17.28h4.236L113.323 26h-2.976l-4.944-15.504h.648L101.167 26h-2.976zm3.036-3.744v-2.7h9.072v2.7h-9.072zM115.493 26V8.72h2.928V20.9l8.016-12.18h2.928V26h-2.928V13.82L118.421 26h-2.928zm6.924-18.744a3.527 3.527 0 01-1.836-.492 3.791 3.791 0 01-1.308-1.308 3.527 3.527 0 01-.492-1.836h2.256c0 .384.132.712.396.984.272.264.6.396.984.396s.708-.132.972-.396c.272-.272.408-.6.408-.984h2.256c0 .672-.164 1.284-.492 1.836-.328.544-.768.98-1.32 1.308a3.504 3.504 0 01-1.824.492zM132.719 26V8.72h7.14c.168 0 .384.008.648.024.264.008.508.032.732.072 1 .152 1.824.484 2.472.996a4.559 4.559 0 011.452 1.944c.32.776.48 1.64.48 2.592 0 .944-.16 1.808-.48 2.592a4.664 4.664 0 01-1.464 1.932c-.648.512-1.468.844-2.46.996a9.048 9.048 0 01-.744.072c-.264.016-.476.024-.636.024h-4.248V26h-2.892zm2.892-8.736h4.128c.16 0 .34-.008.54-.024s.384-.048.552-.096c.48-.12.856-.332 1.128-.636.28-.304.476-.648.588-1.032.12-.384.18-.76.18-1.128 0-.368-.06-.744-.18-1.128a2.56 2.56 0 00-.588-1.044c-.272-.304-.648-.516-1.128-.636a2.348 2.348 0 00-.552-.084c-.2-.016-.38-.024-.54-.024h-4.128v5.832zM161.919 26h-2.928V13.82L150.975 26h-2.928V8.72h2.928V20.9l8.016-12.18h2.928V26zm3.355 0V8.72h2.892v7.272h8.184V8.72h2.88V26h-2.88v-7.296h-8.184V26h-2.892zm17.32 0V8.72h11.16v2.712h-8.268V26h-2.892z" fill="#292D32"/></svg>