<?xml version="1.0" encoding="utf-8"?><svg viewBox="0 0 32 32" xmlns="http://www.w3.org/2000/svg" xmlns:xlink="http://www.w3.org/1999/xlink"><style>:root>svg{display:none}:root>svg:target{display:block}</style><svg fill="none" viewBox="0 0 24 24" id="icon-add" xmlns="http://www.w3.org/2000/svg"><g clip-path="url(#aclip0_33_2516)" stroke="#fff" stroke-width="1.5" stroke-linecap="round" stroke-linejoin="round"><path d="M12 21a9 9 0 100-18 9 9 0 000 18zM9 12h6M12 9v6"/></g><defs><clipPath id="aclip0_33_2516"><path fill="#fff" d="M0 0h24v24H0z"/></clipPath></defs></svg><svg fill="none" viewBox="0 0 24 24" id="icon-arrow-next" xmlns="http://www.w3.org/2000/svg"><g clip-path="url(#bclip0_37_131)" stroke="currentColor" stroke-width="1.5" stroke-linecap="round" stroke-linejoin="round"><path d="M15 12L9 6M9 18l6-6"/></g><defs><clipPath id="bclip0_37_131"><path fill="#fff" transform="matrix(0 1 1 0 0 0)" d="M0 0h24v24H0z"/></clipPath></defs></svg><svg fill="none" viewBox="0 0 24 24" id="icon-arrow-prev" xmlns="http://www.w3.org/2000/svg"><g clip-path="url(#cclip0_33_2610)" stroke="currentColor" stroke-width="1.5" stroke-linecap="round" stroke-linejoin="round"><path d="M9 12l6-6M15 18l-6-6"/></g><defs><clipPath id="cclip0_33_2610"><path fill="#fff" transform="rotate(90 12 12)" d="M0 0h24v24H0z"/></clipPath></defs></svg><svg fill="none" viewBox="0 0 24 24" id="icon-back" xmlns="http://www.w3.org/2000/svg"><g clip-path="url(#dclip0_77_1228)" stroke="currentColor" stroke-width="1.5" stroke-linecap="round" stroke-linejoin="round"><path d="M9 12l6-6M15 18l-6-6"/></g><defs><clipPath id="dclip0_77_1228"><path fill="#fff" transform="rotate(90 12 12)" d="M0 0h24v24H0z"/></clipPath></defs></svg><svg fill="none" viewBox="0 0 24 24" id="icon-calendar" xmlns="http://www.w3.org/2000/svg"><g clip-path="url(#eclip0_32_1839)" stroke="#292D32" stroke-width="1.5" stroke-linecap="round" stroke-linejoin="round"><path d="M18 5H6a2 2 0 00-2 2v12a2 2 0 002 2h12a2 2 0 002-2V7a2 2 0 00-2-2zM16 3v4M8 3v4M4 11h16M11 15h1M12 15v3"/></g><defs><clipPath id="eclip0_32_1839"><path fill="#fff" d="M0 0h24v24H0z"/></clipPath></defs></svg><svg fill="none" viewBox="0 0 14 8" id="icon-caret" xmlns="http://www.w3.org/2000/svg"><path d="M7 7L1 1M13 1L7 7" stroke="#292D32" stroke-width="1.5" stroke-linecap="round" stroke-linejoin="round"/></svg><svg fill="none" viewBox="0 0 14 8" id="icon-caret-white" xmlns="http://www.w3.org/2000/svg"><path d="M7 7L1 1M13 1L7 7" stroke="#fff" stroke-width="1.5" stroke-linecap="round" stroke-linejoin="round"/></svg><svg fill="none" viewBox="0 0 24 24" id="icon-copy" xmlns="http://www.w3.org/2000/svg"><g clip-path="url(#hclip0_77_1204)" stroke-width="1.5" stroke-linecap="round" stroke-linejoin="round"><path d="M18 8h-8a2 2 0 00-2 2v8a2 2 0 002 2h8a2 2 0 002-2v-8a2 2 0 00-2-2z" stroke="#292D32"/><path d="M16 8V6a2 2 0 00-2-2H6a2 2 0 00-2 2v8a2 2 0 002 2h2" stroke="currentColor"/></g><defs><clipPath id="hclip0_77_1204"><path fill="#fff" d="M0 0h24v24H0z"/></clipPath></defs></svg><svg fill="none" viewBox="0 0 24 24" id="icon-documents" xmlns="http://www.w3.org/2000/svg"><g clip-path="url(#iclip0_65_1361)" stroke="currentColor" stroke-width="1.5" stroke-linecap="round" stroke-linejoin="round"><path d="M15 3v4a1 1 0 001 1h4"/><path d="M18 17h-7a2 2 0 01-2-2V5a2 2 0 012-2h4l5 5v7a2 2 0 01-2 2z"/><path d="M16 17v2a2 2 0 01-2 2H7a2 2 0 01-2-2V9a2 2 0 012-2h2"/></g><defs><clipPath id="iclip0_65_1361"><path fill="#fff" d="M0 0h24v24H0z"/></clipPath></defs></svg><svg fill="none" viewBox="0 0 24 24" id="icon-done" xmlns="http://www.w3.org/2000/svg"><g clip-path="url(#jclip0_30_1543)"><path d="M5 12l5 5L20 7" stroke="#11B07A" stroke-width="1.5" stroke-linecap="round" stroke-linejoin="round"/></g><defs><clipPath id="jclip0_30_1543"><path fill="#fff" d="M0 0h24v24H0z"/></clipPath></defs></svg><svg fill="none" viewBox="0 0 24 24" id="icon-error" xmlns="http://www.w3.org/2000/svg"><g clip-path="url(#kclip0_30_1537)" stroke="#FD5749" stroke-width="1.5" stroke-linecap="round" stroke-linejoin="round"><path d="M18 6L6 18M6 6l12 12"/></g><defs><clipPath id="kclip0_30_1537"><path fill="#fff" d="M0 0h24v24H0z"/></clipPath></defs></svg><svg fill="none" viewBox="0 0 29 29" id="icon-exit" xmlns="http://www.w3.org/2000/svg"><g clip-path="url(#lclip0_65_1701)" stroke="currentColor" stroke-width="1.5" stroke-linecap="round" stroke-linejoin="round"><path d="M16.917 9.667V7.25A2.416 2.416 0 0014.5 4.833H6.042A2.417 2.417 0 003.625 7.25v14.5a2.417 2.417 0 002.417 2.417H14.5a2.417 2.417 0 002.417-2.417v-2.417"/><path d="M8.458 14.5h16.917l-3.625-3.625m0 7.25l3.625-3.625"/></g><defs><clipPath id="lclip0_65_1701"><path fill="#fff" d="M0 0h29v29H0z"/></clipPath></defs></svg><svg fill="none" viewBox="0 0 24 24" id="icon-export" xmlns="http://www.w3.org/2000/svg"><g clip-path="url(#mclip0_33_2528)" stroke="currentColor" stroke-width="1.5" stroke-linecap="round" stroke-linejoin="round"><path d="M19 18a3.5 3.5 0 100-7h-1c.146-.65.148-1.32.006-1.97a4.784 4.784 0 00-.831-1.823 5.363 5.363 0 00-1.544-1.398 5.964 5.964 0 00-2.02-.759 6.223 6.223 0 00-2.19-.006 5.972 5.972 0 00-2.024.749C8.157 6.533 7.295 7.687 7 9a4.745 4.745 0 00-2.966.886 4.39 4.39 0 00-1.7 2.487 4.227 4.227 0 00.34 2.954A4.513 4.513 0 004.9 17.4M12 13v9M9 19l3 3 3-3"/></g><defs><clipPath id="mclip0_33_2528"><path fill="#fff" d="M0 0h24v24H0z"/></clipPath></defs></svg><svg fill="none" viewBox="0 0 24 24" id="icon-filter" xmlns="http://www.w3.org/2000/svg"><g clip-path="url(#nclip0_69_737)" stroke="#292D32" stroke-width="1.5" stroke-linecap="round" stroke-linejoin="round"><path d="M6 12a2 2 0 100-4 2 2 0 000 4zM6 4v4M6 12v8M12 18a2 2 0 100-4 2 2 0 000 4zM12 4v10M12 18v2M18 9a2 2 0 100-4 2 2 0 000 4zM18 4v1M18 9v11"/></g><defs><clipPath id="nclip0_69_737"><path fill="#fff" d="M0 0h24v24H0z"/></clipPath></defs></svg><svg fill="none" viewBox="0 0 24 24" id="icon-lock" xmlns="http://www.w3.org/2000/svg"><g clip-path="url(#oclip0_65_1345)" stroke="currentColor" stroke-width="1.5" stroke-linecap="round" stroke-linejoin="round"><path d="M17 11H7a2 2 0 00-2 2v6a2 2 0 002 2h10a2 2 0 002-2v-6a2 2 0 00-2-2z"/><path d="M12 17a1 1 0 100-2 1 1 0 000 2zM8 11V7a4 4 0 018 0v4"/></g><defs><clipPath id="oclip0_65_1345"><path fill="#fff" d="M0 0h24v24H0z"/></clipPath></defs></svg><svg fill="none" viewBox="0 0 29 29" id="icon-notification" xmlns="http://www.w3.org/2000/svg"><g clip-path="url(#pclip0_65_1717)" stroke="currentColor" stroke-width="1.5" stroke-linecap="round" stroke-linejoin="round"><path d="M12.083 6.042a2.417 2.417 0 114.834 0 8.458 8.458 0 014.833 7.25v3.625a4.833 4.833 0 002.417 3.625H4.833a4.834 4.834 0 002.417-3.625v-3.625a8.459 8.459 0 014.833-7.25M10.875 20.542v1.208a3.625 3.625 0 107.25 0v-1.208"/></g><defs><clipPath id="pclip0_65_1717"><path fill="#fff" d="M0 0h29v29H0z"/></clipPath></defs></svg><svg fill="none" viewBox="0 0 24 24" id="icon-settings" xmlns="http://www.w3.org/2000/svg"><g clip-path="url(#qclip0_65_1354)" stroke="currentColor" stroke-width="1.5" stroke-linecap="round" stroke-linejoin="round"><path d="M10.325 4.317c.426-1.756 2.924-1.756 3.35 0a1.724 1.724 0 002.573 1.066c1.543-.94 3.31.826 2.37 2.37a1.724 1.724 0 001.065 2.572c1.756.426 1.756 2.924 0 3.35a1.724 1.724 0 00-1.066 2.573c.94 1.543-.826 3.31-2.37 2.37a1.724 1.724 0 00-2.572 1.065c-.426 1.756-2.924 1.756-3.35 0a1.723 1.723 0 00-2.573-1.066c-1.543.94-3.31-.826-2.37-2.37a1.724 1.724 0 00-1.065-2.572c-1.756-.426-1.756-2.924 0-3.35a1.724 1.724 0 001.066-2.573c-.94-1.543.826-3.31 2.37-2.37 1 .608 2.296.07 2.572-1.065z"/><path d="M10 9v6l5-3-5-3z"/></g><defs><clipPath id="qclip0_65_1354"><path fill="#fff" d="M0 0h24v24H0z"/></clipPath></defs></svg><svg fill="none" viewBox="0 0 24 24" id="icon-statistics" xmlns="http://www.w3.org/2000/svg"><g clip-path="url(#rclip0_65_1337)" stroke="currentColor" stroke-width="1.5" stroke-linecap="round" stroke-linejoin="round"><path d="M4 19l4-6 4 2 4-5 4 4v5H4zM4 12l3-4 4 2 5-6 4 4"/></g><defs><clipPath id="rclip0_65_1337"><path fill="#fff" d="M0 0h24v24H0z"/></clipPath></defs></svg><svg fill="none" viewBox="0 0 32 32" id="icon-time" xmlns="http://www.w3.org/2000/svg"><g clip-path="url(#sclip0_77_1218)" stroke="#292D32" stroke-width="1.5" stroke-linecap="round" stroke-linejoin="round"><path d="M16 28c6.627 0 12-5.373 12-12S22.627 4 16 4 4 9.373 4 16s5.373 12 12 12z"/><path d="M16 10.667v6.666l4 4"/></g><defs><clipPath id="sclip0_77_1218"><path fill="#fff" d="M0 0h32v32H0z"/></clipPath></defs></svg><svg fill="none" viewBox="0 0 24 24" id="icon-transactions" xmlns="http://www.w3.org/2000/svg"><g clip-path="url(#tclip0_65_1329)" stroke="currentColor" stroke-width="1.5" stroke-linecap="round" stroke-linejoin="round"><path d="M5 21V5a2 2 0 012-2h10a2 2 0 012 2v16l-3-2-2 2-2-2-2 2-2-2-3 2z"/><path d="M14 8h-2.5a1.5 1.5 0 000 3h1a1.5 1.5 0 110 3H10m2 0v1.5m0-9V8"/></g><defs><clipPath id="tclip0_65_1329"><path fill="#fff" d="M0 0h24v24H0z"/></clipPath></defs></svg></svg>