<?xml version="1.0" encoding="utf-8"?><svg viewBox="0 0 32 32" xmlns="http://www.w3.org/2000/svg" xmlns:xlink="http://www.w3.org/1999/xlink"><style>:root>svg{display:none}:root>svg:target{display:block}</style><svg fill="none" viewBox="0 0 8 14" id="icon-back" xmlns="http://www.w3.org/2000/svg"><path d="M1 7l6-6M7 13L1 7" stroke="currentColor" stroke-width="1.5" stroke-linecap="round" stroke-linejoin="round"/></svg><svg fill="none" viewBox="0 0 14 8" id="icon-caret" xmlns="http://www.w3.org/2000/svg"><path d="M7 7L1 1M13 1L7 7" stroke="#292D32" stroke-width="1.5" stroke-linecap="round" stroke-linejoin="round"/></svg><svg fill="none" viewBox="0 0 24 24" id="icon-copy" xmlns="http://www.w3.org/2000/svg"><g clip-path="url(#cclip0_77_1204)" stroke-width="1.5" stroke-linecap="round" stroke-linejoin="round"><path d="M18 8h-8a2 2 0 00-2 2v8a2 2 0 002 2h8a2 2 0 002-2v-8a2 2 0 00-2-2z" stroke="#292D32"/><path d="M16 8V6a2 2 0 00-2-2H6a2 2 0 00-2 2v8a2 2 0 002 2h2" stroke="currentColor"/></g><defs><clipPath id="cclip0_77_1204"><path fill="#fff" d="M0 0h24v24H0z"/></clipPath></defs></svg><svg fill="none" viewBox="0 0 32 32" id="icon-time" xmlns="http://www.w3.org/2000/svg"><g clip-path="url(#dclip0_77_1218)" stroke="#292D32" stroke-width="1.5" stroke-linecap="round" stroke-linejoin="round"><path d="M16 28c6.627 0 12-5.373 12-12S22.627 4 16 4 4 9.373 4 16s5.373 12 12 12z"/><path d="M16 10.667v6.666l4 4"/></g><defs><clipPath id="dclip0_77_1218"><path fill="#fff" d="M0 0h32v32H0z"/></clipPath></defs></svg></svg>